<?xml version="1.0" encoding="utf-8"?>
<!-- Generator: Adobe Illustrator 22.0.1, SVG Export Plug-In . SVG Version: 6.00 Build 0)  -->
<svg version="1.1" id="Layer_1" xmlns="http://www.w3.org/2000/svg" xmlns:xlink="http://www.w3.org/1999/xlink" x="0px" y="0px"
	 viewBox="0 0 604.4 375.8" style="enable-background:new 0 0 604.4 375.8;" xml:space="preserve">
<style type="text/css">
	.st0{fill:#F7C638;}
	.st1{display:none;fill:#FFFFFF;}
	.st2{fill:#88D2DC;stroke:#000000;stroke-miterlimit:10;}
	.st3{clip-path:url(#SVGID_2_);}
	.st4{fill:#FFD27A;stroke:#000000;stroke-miterlimit:10;}
	.st5{fill:#F58F8C;stroke:#000000;stroke-miterlimit:10;}
</style>
<g>
	<path class="st0" d="M298.8,93.6c-77.7,0-140.7,63-140.7,140.7c0,74,57.1,134.7,129.7,140.3c-3.2-7.7-0.1-19.3,0.1-26.6
		c0-1.7,1-3.3,2.4-4.2c0.1-1,0.3-1.9,0.4-2.9c-5.1-6-6.4-15.1-4.2-22.9c-0.5-1.5-1-2.9-1.6-4.3c-7.7-4-12.9-11.1-11.5-21.2
		c0.9-6.3,3.6-12.6,9.2-16.1c5-3.1,11.3-3.7,16.9-5.2c2.7-0.7,4.7,0.7,5.6,2.6c7.3,1.4,12.8,7.8,14.5,14.9c1,4.1,0.5,8.4-1.1,12.3
		c0.1,2,0,4-0.5,5.9c-0.7,2.7-2.1,4.8-3.8,6.4c1.5,1,2.3,2.8,1.5,5.1c-4.5,11.6-2.7,23.5,0,35.3c0.8,3.4-2.3,6.2-5.2,6.4
		c-0.1,0.4-0.2,0.8-0.3,1.2c0.4,0.3,0.7,0.7,1,1.2c2.2,3.8,2.8,8.1,1.3,11.9c71.3-6.9,127-66.9,127-140
		C439.5,156.6,376.5,93.6,298.8,93.6z"/>
	<rect x="285.6" y="309.2" class="st1" width="27" height="66.8"/>
	<circle class="st1" cx="298.8" cy="298.4" r="30.2"/>
	<path d="M223.5,309.2c-11.5-11.5-20.3-25.6-25.5-41c-1.1-3.1-4.5-4.8-7.6-3.7c-3.1,1.1-4.8,4.5-3.7,7.6
		c5.8,17.1,15.6,32.9,28.4,45.6c12.8,12.8,28.5,22.6,45.6,28.4c0.6,0.2,1.3,0.3,1.9,0.3c2.5,0,4.8-1.6,5.7-4.1
		c1.1-3.1-0.6-6.5-3.7-7.6C249.2,329.5,235,320.7,223.5,309.2L223.5,309.2z M223.5,309.2"/>
	<rect x="201.5" y="11" class="st2" width="100" height="25"/>
	<g>
		<defs>
			<rect id="SVGID_1_" x="144.6" width="308.9" height="375.8"/>
		</defs>
		<clipPath id="SVGID_2_">
			<use xlink:href="#SVGID_1_"  style="overflow:visible;"/>
		</clipPath>
		<path class="st3" d="M399.7,199.6c0.8,2.5,3.2,4.1,5.7,4.1c0.6,0,1.3-0.1,1.9-0.3c3.1-1.1,4.8-4.5,3.7-7.6
			c-5.8-17.1-15.6-32.9-28.4-45.6c-2.3-2.3-6.1-2.3-8.5,0c-2.3,2.3-2.3,6.1,0,8.5C385.6,170,394.4,184.2,399.7,199.6L399.7,199.6z
			 M399.7,199.6"/>
		<path class="st3" d="M453,233.9c0-8.1-5.4-15.1-12.8-17.4c-4.1-33.5-19.9-64.5-45-87.5c-21.8-20.1-49.1-32.7-78.2-36.4V81.2
			c4-4.5,6.3-10.3,6.3-16.3c0-0.6,0-1.2-0.1-1.8c7.5-6.8,11.9-16.6,11.9-26.8c0-20-16.3-36.3-36.3-36.3c-20,0-36.3,16.3-36.3,36.3
			c0,10.2,4.4,20,11.9,26.8c0,0.6-0.1,1.2-0.1,1.8c0,6.1,2.3,11.9,6.3,16.3v11.4c-29.1,3.7-56.4,16.3-78.2,36.4
			c-25.1,23-40.9,54-45,87.5c-7.4,2.3-12.8,9.2-12.8,17.4c0,8.2,5.4,15.1,12.8,17.4c3.8,31.4,18.2,60.9,40.7,83.4
			c23.6,23.6,54.9,38.2,88,41.2c1.7,0.1,3.3-0.4,4.6-1.6c1.2-1.1,2-2.7,2-4.4v-2.4c2.1,0.1,4.2,0.1,6.2,0.1c2.1,0,4.2,0,6.2-0.1v2.4
			c0,1.7,0.7,3.3,1.9,4.4c1.1,1,2.6,1.6,4.1,1.6c0.2,0,0.4,0,0.5,0c33.2-3,64.6-17.6,88.5-41.2c22.9-22.7,37.5-52.3,41.3-83.8
			C448.2,248.3,453,241.6,453,233.9L453,233.9z M289.4,316.5c-6.6-3.5-10.7-10.3-10.7-17.8c0-11.1,9-20.1,20.1-20.1
			c11.1,0,20.1,9,20.1,20.1c0,7.5-4.1,14.3-10.7,17.8c-2,1-3.2,3.1-3.2,5.3v33.7c-4.2,0.2-8.3,0.2-12.5,0v-33.7
			C292.6,319.5,291.4,317.5,289.4,316.5L289.4,316.5z M317.1,363.1v-38c8.6-6,13.9-15.8,13.9-26.4c0-17.7-14.4-32.1-32.1-32.1
			c-17.7,0-32.1,14.4-32.1,32.1c0,10.7,5.2,20.5,13.9,26.4v38c-57.7-8-103-53.3-111-111h259.5C421,309.8,375.3,355.1,317.1,363.1
			L317.1,363.1z M162.9,227.6h24c3.3,0,6-2.7,6-6c0-3.3-2.7-6-6-6h-17.3c8.3-60.5,56.8-106.3,117.2-111.7c0.2,0,0.4,0,0.6,0
			c3.8-0.3,7.6-0.5,11.5-0.5c3.9,0,7.7,0.2,11.5,0.5c0.2,0,0.4,0,0.6,0c60.4,5.4,108.9,51.2,117.2,111.7H210.9c-3.3,0-6,2.7-6,6
			c0,3.3,2.7,6,6,6h223.9c3.4,0,6.2,2.8,6.2,6.2c0,3.4-2.8,6.2-6.2,6.2H162.9c-3.4,0-6.2-2.8-6.2-6.2
			C156.6,230.4,159.4,227.6,162.9,227.6L162.9,227.6z M311.3,64.8c0,2.9-1,5.6-2.8,7.9h-19.4c-1.8-2.2-2.8-5-2.8-7.9
			c0-6.9,5.6-12.5,12.5-12.5C305.7,52.3,311.3,57.9,311.3,64.8L311.3,64.8z M292.6,84.7h12.5v6.9c-2.1-0.1-4.2-0.1-6.2-0.1
			c-2.1,0-4.2,0.1-6.2,0.1L292.6,84.7L292.6,84.7z M274.5,36.1c0-13.4,10.9-24.3,24.3-24.3c13.4,0,24.3,10.9,24.3,24.3
			c0,5.2-1.6,10.1-4.6,14.2c-4.5-6.1-11.7-10-19.7-10c-8.1,0-15.3,3.9-19.8,10C276.1,46.3,274.5,41.4,274.5,36.1L274.5,36.1z
			 M274.5,36.1"/>
	</g>
	<path d="M252.9,137.2c0.8,0,1.7-0.2,2.4-0.5c10.2-4.5,20.9-7.4,31.8-8.6c3.3-0.4,5.7-3.3,5.3-6.6c-0.4-3.3-3.3-5.7-6.6-5.3
		c-12.2,1.3-24.1,4.5-35.4,9.6c-3,1.4-4.4,4.9-3,7.9C248.5,135.8,250.7,137.2,252.9,137.2L252.9,137.2z M252.9,137.2"/>
	<path d="M223.5,158.6c3.8-3.8,7.9-7.3,12.3-10.5c2.7-2,3.2-5.7,1.3-8.4c-2-2.7-5.7-3.2-8.4-1.3c-4.8,3.6-9.4,7.5-13.6,11.7
		c-12.8,12.8-22.6,28.5-28.4,45.6c-1.1,3.1,0.6,6.5,3.7,7.6c0.6,0.2,1.3,0.3,1.9,0.3c2.5,0,4.8-1.6,5.7-4.1
		C203.2,184.2,212,170,223.5,158.6L223.5,158.6z M223.5,158.6"/>
</g>
<rect x="302.9" y="11" class="st2" width="100" height="25"/>
<rect x="403.9" y="11" class="st4" width="200" height="25"/>
<rect x="0.5" y="11" class="st5" width="200" height="25"/>
</svg>
